<svg width="72" height="104" viewBox="0 0 72 104" fill="none" xmlns="http://www.w3.org/2000/svg">
<circle cx="5.5" cy="17.5" r="1.5" fill="#0E1947"/>
<circle cx="15.229" cy="17.5" r="1.5" fill="#0E1947"/>
<circle cx="24.9579" cy="17.5" r="1.5" fill="#0E1947"/>
<circle cx="34.6869" cy="17.5" r="1.5" fill="#0E1947"/>
<circle cx="44.4159" cy="17.5" r="1.5" fill="#0E1947"/>
<circle cx="5.5" cy="27.229" r="1.5" fill="#0E1947"/>
<circle cx="15.229" cy="27.229" r="1.5" fill="#0E1947"/>
<circle cx="24.9579" cy="27.229" r="1.5" fill="#0E1947"/>
<circle cx="34.6869" cy="27.229" r="1.5" fill="#0E1947"/>
<circle cx="44.4159" cy="27.229" r="1.5" fill="#0E1947"/>
<circle cx="5.5" cy="36.958" r="1.5" fill="#0E1947"/>
<circle cx="15.229" cy="36.958" r="1.5" fill="#0E1947"/>
<circle cx="24.9579" cy="36.958" r="1.5" fill="#0E1947"/>
<circle cx="34.6869" cy="36.958" r="1.5" fill="#0E1947"/>
<circle cx="44.4159" cy="36.958" r="1.5" fill="#0E1947"/>
<circle cx="5.5" cy="46.687" r="1.5" fill="#0E1947"/>
<circle cx="15.229" cy="46.687" r="1.5" fill="#0E1947"/>
<circle cx="24.9579" cy="46.687" r="1.5" fill="#0E1947"/>
<circle cx="34.6869" cy="46.687" r="1.5" fill="#0E1947"/>
<circle cx="44.4159" cy="46.687" r="1.5" fill="#0E1947"/>
<circle cx="5.5" cy="56.416" r="1.5" fill="#0E1947"/>
<circle cx="15.229" cy="56.416" r="1.5" fill="#0E1947"/>
<circle cx="24.9579" cy="56.416" r="1.5" fill="#0E1947"/>
<circle cx="34.6869" cy="56.416" r="1.5" fill="#0E1947"/>
<circle cx="44.4159" cy="56.416" r="1.5" fill="#0E1947"/>
<circle cx="5.5" cy="66.145" r="1.5" fill="#0E1947"/>
<circle cx="15.229" cy="66.145" r="1.5" fill="#0E1947"/>
<circle cx="24.9579" cy="66.145" r="1.5" fill="#0E1947"/>
<circle cx="34.6869" cy="66.145" r="1.5" fill="#0E1947"/>
<circle cx="44.4159" cy="66.145" r="1.5" fill="#0E1947"/>
<circle cx="5.5" cy="75.874" r="1.5" fill="#0E1947"/>
<circle cx="15.229" cy="75.874" r="1.5" fill="#0E1947"/>
<circle cx="24.9579" cy="75.874" r="1.5" fill="#0E1947"/>
<circle cx="34.6869" cy="75.874" r="1.5" fill="#0E1947"/>
<circle cx="44.4159" cy="75.874" r="1.5" fill="#0E1947"/>
<circle cx="5.5" cy="85.603" r="1.5" fill="#0E1947"/>
<circle cx="15.229" cy="85.603" r="1.5" fill="#0E1947"/>
<circle cx="24.9579" cy="85.603" r="1.5" fill="#0E1947"/>
<circle cx="34.6869" cy="85.603" r="1.5" fill="#0E1947"/>
<circle cx="44.4159" cy="85.603" r="1.5" fill="#0E1947"/>
<path d="M3.13098 77.6228L27.4444 53.3094L40.8006 66.6656L64.8417 42.6245" stroke="#EE4312" stroke-width="8"/>
<path d="M71.8058 35.6887L66.2974 56.2464L51.2481 41.1971L71.8058 35.6887Z" fill="#EE4312"/>
</svg>
