<svg width="72" height="104" viewBox="0 0 72 104" fill="none" xmlns="http://www.w3.org/2000/svg">
<path d="M41.9223 81.8446C45.8518 81.8446 49.7428 81.0707 53.3731 79.5669C57.0034 78.0632 60.3021 75.8591 63.0806 73.0806C65.8591 70.3021 68.0632 67.0034 69.5669 63.3731C71.0707 59.7428 71.8446 55.8518 71.8446 51.9223C71.8446 47.9929 71.0707 44.1019 69.5669 40.4715C68.0632 36.8412 65.8591 33.5426 63.0806 30.764C60.3021 27.9855 57.0034 25.7814 53.3731 24.2777C49.7428 22.774 45.8518 22 41.9223 22V29.8359C44.8227 29.8359 47.6948 30.4072 50.3744 31.5171C53.0541 32.6271 55.4889 34.254 57.5398 36.3049C59.5907 38.3558 61.2175 40.7906 62.3275 43.4702C63.4374 46.1499 64.0087 49.0219 64.0087 51.9223C64.0087 54.8228 63.4374 57.6948 62.3275 60.3744C61.2175 63.0541 59.5907 65.4889 57.5398 67.5398C55.4889 69.5907 53.0541 71.2175 50.3744 72.3275C47.6948 73.4374 44.8227 74.0087 41.9223 74.0087V81.8446Z" fill="#EE4312"/>
<circle cx="5.5" cy="23.8003" r="1.5" fill="#0E1947"/>
<circle cx="15.23" cy="23.8003" r="1.5" fill="#0E1947"/>
<circle cx="24.96" cy="23.8003" r="1.5" fill="#0E1947"/>
<circle cx="34.69" cy="23.8003" r="1.5" fill="#0E1947"/>
<circle cx="5.5" cy="31.9004" r="1.5" fill="#0E1947"/>
<circle cx="15.23" cy="31.9004" r="1.5" fill="#0E1947"/>
<circle cx="24.96" cy="31.9004" r="1.5" fill="#0E1947"/>
<circle cx="34.69" cy="31.9004" r="1.5" fill="#0E1947"/>
<circle cx="5.5" cy="40.0005" r="1.5" fill="#0E1947"/>
<circle cx="15.23" cy="40.0005" r="1.5" fill="#0E1947"/>
<circle cx="24.96" cy="40.0005" r="1.5" fill="#0E1947"/>
<circle cx="34.69" cy="40.0005" r="1.5" fill="#0E1947"/>
<circle cx="5.5" cy="48.1001" r="1.5" fill="#0E1947"/>
<circle cx="15.23" cy="48.1001" r="1.5" fill="#0E1947"/>
<circle cx="24.96" cy="48.1001" r="1.5" fill="#0E1947"/>
<circle cx="34.69" cy="48.1001" r="1.5" fill="#0E1947"/>
<circle cx="5.5" cy="56.2002" r="1.5" fill="#0E1947"/>
<circle cx="15.23" cy="56.2002" r="1.5" fill="#0E1947"/>
<circle cx="24.96" cy="56.2002" r="1.5" fill="#0E1947"/>
<circle cx="34.69" cy="56.2002" r="1.5" fill="#0E1947"/>
<circle cx="5.5" cy="64.3003" r="1.5" fill="#0E1947"/>
<circle cx="15.23" cy="64.3003" r="1.5" fill="#0E1947"/>
<circle cx="24.96" cy="64.3003" r="1.5" fill="#0E1947"/>
<circle cx="34.69" cy="64.3003" r="1.5" fill="#0E1947"/>
<circle cx="5.5" cy="72.4004" r="1.5" fill="#0E1947"/>
<circle cx="15.23" cy="72.4004" r="1.5" fill="#0E1947"/>
<circle cx="24.96" cy="72.4004" r="1.5" fill="#0E1947"/>
<circle cx="34.69" cy="72.4004" r="1.5" fill="#0E1947"/>
<circle cx="5.5" cy="80.5005" r="1.5" fill="#0E1947"/>
<circle cx="15.23" cy="80.5005" r="1.5" fill="#0E1947"/>
<circle cx="24.96" cy="80.5005" r="1.5" fill="#0E1947"/>
<circle cx="34.69" cy="80.5005" r="1.5" fill="#0E1947"/>
</svg>
