<svg width="40" height="40" viewBox="0 0 40 40" fill="none" xmlns="http://www.w3.org/2000/svg">
<path d="M12.8317 10.0833C12.8313 10.8347 12.5325 11.5553 12.0008 12.0863C11.4692 12.6174 10.7484 12.9156 9.99696 12.9152C9.24551 12.9148 8.52499 12.616 7.9939 12.0843C7.46281 11.5527 7.16466 10.8319 7.16504 10.0805C7.16542 9.32901 7.46429 8.60849 7.99591 8.0774C8.52752 7.54631 9.24834 7.24816 9.99979 7.24854C10.7512 7.24891 11.4718 7.54778 12.0028 8.0794C12.5339 8.61102 12.8321 9.33184 12.8317 10.0833ZM12.9167 15.0133H7.25004V32.75H12.9167V15.0133ZM21.87 15.0133H16.2317V32.75H21.8134V23.4425C21.8134 18.2575 28.5709 17.7758 28.5709 23.4425V32.75H34.1667V21.5158C34.1667 12.775 24.165 13.1008 21.8134 17.3933L21.87 15.0133Z" fill="#0E1947"/>
</svg>
