<svg width="40" height="40" viewBox="0 0 40 40" fill="none" xmlns="http://www.w3.org/2000/svg">
<path d="M26.2493 7.5H13.7493C10.2975 7.5 7.49927 10.2982 7.49927 13.75V26.25C7.49927 29.7018 10.2975 32.5 13.7493 32.5H26.2493C29.701 32.5 32.4993 29.7018 32.4993 26.25V13.75C32.4993 10.2982 29.701 7.5 26.2493 7.5Z" stroke="#0E1947" stroke-width="2.5" stroke-linecap="round" stroke-linejoin="round"/>
<path d="M26.8739 13.125H26.8864M24.9989 19.2125C25.1532 20.2528 24.9755 21.3153 24.4911 22.2488C24.0067 23.1823 23.2403 23.9393 22.3009 24.4121C21.3615 24.8849 20.297 25.0495 19.2586 24.8824C18.2203 24.7153 17.2611 24.2251 16.5175 23.4815C15.7738 22.7378 15.2836 21.7786 15.1165 20.7403C14.9494 19.7019 15.114 18.6374 15.5868 17.698C16.0596 16.7586 16.8166 15.9922 17.7501 15.5078C18.6836 15.0234 19.7461 14.8457 20.7864 15C21.8476 15.1574 22.83 15.6518 23.5885 16.4104C24.3471 17.1689 24.8415 18.1513 24.9989 19.2125Z" stroke="#0E1947" stroke-width="2.5" stroke-linecap="round" stroke-linejoin="round"/>
</svg>
