<svg width="101" height="100" viewBox="0 0 101 100" fill="none" xmlns="http://www.w3.org/2000/svg">
<path d="M15.1447 14.6447C6.56716 23.2222 1.40042 34.6254 0.607054 46.7298C-0.186313 58.8343 3.44781 70.8144 10.8323 80.4381C18.2169 90.0618 28.8482 96.6727 40.7455 99.0393C52.6428 101.406 64.9948 99.3665 75.5 93.3013L73 88.9711C63.5453 94.4298 52.4285 96.2652 41.7209 94.1353C31.0133 92.0055 21.4452 86.0556 14.7991 77.3943C8.15303 68.7329 4.88232 57.9509 5.59635 47.0569C6.31038 36.1629 10.9604 25.8999 18.6802 18.1802L15.1447 14.6447Z" fill="#0E1947"/>
<path d="M85.8553 85.3553C94.4328 76.7778 99.5996 65.3746 100.393 53.2702C101.186 41.1657 97.5522 29.1856 90.1677 19.5619C82.7831 9.93823 72.1518 3.32726 60.2545 0.960737C48.3572 -1.40579 36.0053 0.633522 25.5 6.69873L28 11.0289C37.4547 5.57017 48.5715 3.73479 59.2791 5.86466C69.9867 7.99454 79.5548 13.9444 86.2009 22.6057C92.847 31.2671 96.1177 42.0491 95.4036 52.9431C94.6896 63.8371 90.0396 74.1001 82.3198 81.8198L85.8553 85.3553Z" fill="#0E1947"/>
<circle cx="36.4375" cy="35.9375" r="0.9375" fill="#0E1947"/>
<circle cx="41.989" cy="35.9375" r="0.9375" fill="#0E1947"/>
<circle cx="47.5404" cy="35.9375" r="0.9375" fill="#0E1947"/>
<circle cx="53.0919" cy="35.9375" r="0.9375" fill="#0E1947"/>
<circle cx="58.6434" cy="35.9375" r="0.9375" fill="#0E1947"/>
<circle cx="64.1948" cy="35.9375" r="0.9375" fill="#0E1947"/>
<circle cx="36.4375" cy="41.489" r="0.9375" fill="#0E1947"/>
<circle cx="41.989" cy="41.489" r="0.9375" fill="#0E1947"/>
<circle cx="47.5404" cy="41.489" r="0.9375" fill="#0E1947"/>
<circle cx="53.0919" cy="41.489" r="0.9375" fill="#0E1947"/>
<circle cx="58.6434" cy="41.489" r="0.9375" fill="#0E1947"/>
<circle cx="64.1948" cy="41.489" r="0.9375" fill="#0E1947"/>
<circle cx="36.4375" cy="47.0405" r="0.9375" fill="#0E1947"/>
<circle cx="41.989" cy="47.0405" r="0.9375" fill="#0E1947"/>
<circle cx="47.5404" cy="47.0405" r="0.9375" fill="#0E1947"/>
<circle cx="53.0919" cy="47.0405" r="0.9375" fill="#0E1947"/>
<circle cx="58.6434" cy="47.0405" r="0.9375" fill="#0E1947"/>
<circle cx="64.1948" cy="47.0405" r="0.9375" fill="#0E1947"/>
<circle cx="36.4375" cy="52.5918" r="0.9375" fill="#0E1947"/>
<circle cx="41.989" cy="52.5918" r="0.9375" fill="#0E1947"/>
<circle cx="47.5404" cy="52.5918" r="0.9375" fill="#0E1947"/>
<circle cx="53.0919" cy="52.5918" r="0.9375" fill="#0E1947"/>
<circle cx="58.6434" cy="52.5918" r="0.9375" fill="#0E1947"/>
<circle cx="64.1948" cy="52.5918" r="0.9375" fill="#0E1947"/>
<circle cx="36.4375" cy="58.1433" r="0.9375" fill="#0E1947"/>
<circle cx="41.989" cy="58.1433" r="0.9375" fill="#0E1947"/>
<circle cx="47.5404" cy="58.1433" r="0.9375" fill="#0E1947"/>
<circle cx="53.0919" cy="58.1433" r="0.9375" fill="#0E1947"/>
<circle cx="58.6434" cy="58.1433" r="0.9375" fill="#0E1947"/>
<circle cx="64.1948" cy="58.1433" r="0.9375" fill="#0E1947"/>
<circle cx="36.4375" cy="63.6948" r="0.9375" fill="#0E1947"/>
<circle cx="41.989" cy="63.6948" r="0.9375" fill="#0E1947"/>
<circle cx="47.5404" cy="63.6948" r="0.9375" fill="#0E1947"/>
<circle cx="53.0919" cy="63.6948" r="0.9375" fill="#0E1947"/>
<circle cx="58.6434" cy="63.6948" r="0.9375" fill="#0E1947"/>
<circle cx="64.1948" cy="63.6948" r="0.9375" fill="#0E1947"/>
<path d="M79.875 50C79.875 56.4664 77.7413 62.7522 73.8048 67.8824C69.8682 73.0125 64.3489 76.7004 58.1028 78.3741L56.8058 73.5335C61.9863 72.1454 66.5641 69.0867 69.829 64.8317C73.094 60.5767 74.8637 55.3633 74.8637 50H79.875Z" fill="#EE4312"/>
<path d="M50.5 79.375C44.0336 79.375 37.7478 77.2413 32.6176 73.3048C27.4875 69.3682 23.7996 63.8489 22.1259 57.6028L26.9665 56.3058C28.3546 61.4863 31.4133 66.0641 35.6683 69.329C39.9233 72.594 45.1367 74.3637 50.5 74.3637V79.375Z" fill="#EE4312"/>
<path d="M21.125 50C21.125 43.5336 23.2587 37.2478 27.1952 32.1176C31.1318 26.9875 36.6511 23.2996 42.8972 21.6259L44.1942 26.4665C39.0137 27.8546 34.4359 30.9133 31.171 35.1683C27.906 39.4233 26.1363 44.6367 26.1363 50H21.125Z" fill="#EE4312"/>
<path d="M59.3388 41.1612C61.4832 43.3055 62.7749 46.1564 62.9732 49.1825C63.1716 52.2086 62.263 55.2036 60.4169 57.6095C58.5708 60.0154 55.913 61.6682 52.9386 62.2598C49.9643 62.8514 46.8763 62.3416 44.25 60.8253L46.7484 56.498C48.3248 57.4082 50.1784 57.7142 51.9638 57.3591C53.7492 57.004 55.3446 56.0119 56.4527 54.5677C57.5609 53.1235 58.1063 51.3257 57.9872 49.5093C57.8682 47.6928 57.0928 45.9816 55.8056 44.6944L59.3388 41.1612Z" fill="#EE4312"/>
<path d="M41.6612 58.8388C39.5168 56.6945 38.2251 53.8436 38.0268 50.8175C37.8284 47.7914 38.737 44.7964 40.5831 42.3905C42.4292 39.9846 45.087 38.3318 48.0614 37.7402C51.0357 37.1486 54.1237 37.6584 56.75 39.1747L54.2516 43.502C52.6752 42.5918 50.8216 42.2858 49.0362 42.6409C47.2508 42.996 45.6554 43.9881 44.5473 45.4323C43.4391 46.8765 42.8937 48.6743 43.0128 50.4907C43.1319 52.3072 43.9072 54.0184 45.1944 55.3056L41.6612 58.8388Z" fill="#EE4312"/>
<path d="M50.5 20.625C56.9664 20.625 63.2522 22.7587 68.3824 26.6952C73.5125 30.6318 77.2004 36.1511 78.8741 42.3972L74.0335 43.6942C72.6454 38.5137 69.5867 33.9359 65.3317 30.671C61.0767 27.406 55.8633 25.6363 50.5 25.6363V20.625Z" fill="#EE4312"/>
</svg>
