<svg width="101" height="100" viewBox="0 0 101 100" fill="none" xmlns="http://www.w3.org/2000/svg">
<rect x="84.6191" y="80.5876" width="22.459" height="4.99426" transform="rotate(45 84.6191 80.5876)" fill="#0E1947"/>
<path d="M100.385 49.9426C100.385 77.5252 78.0252 99.8853 50.4426 99.8853C22.8601 99.8853 0.5 77.5252 0.5 49.9426C0.5 22.3601 22.8601 0 50.4426 0C78.0252 0 100.385 22.3601 100.385 49.9426ZM5.49426 49.9426C5.49426 74.7669 25.6183 94.891 50.4426 94.891C75.2669 94.891 95.391 74.7669 95.391 49.9426C95.391 25.1183 75.2669 4.99426 50.4426 4.99426C25.6183 4.99426 5.49426 25.1183 5.49426 49.9426Z" fill="#0E1947"/>
<circle cx="24.847" cy="24.9712" r="1.87285" fill="#EE4312"/>
<circle cx="34.8356" cy="24.9712" r="1.87285" fill="#EE4312"/>
<circle cx="44.8241" cy="24.9712" r="1.87285" fill="#EE4312"/>
<circle cx="54.8126" cy="24.9712" r="1.87285" fill="#EE4312"/>
<circle cx="64.8011" cy="24.9712" r="1.87285" fill="#EE4312"/>
<circle cx="74.7897" cy="24.9712" r="1.87285" fill="#EE4312"/>
<circle cx="24.847" cy="34.9598" r="1.87285" fill="#EE4312"/>
<circle cx="34.8356" cy="34.9598" r="1.87285" fill="#EE4312"/>
<circle cx="44.8241" cy="34.9598" r="1.87285" fill="#EE4312"/>
<circle cx="54.8126" cy="34.9598" r="1.87285" fill="#EE4312"/>
<circle cx="64.8011" cy="34.9598" r="1.87285" fill="#EE4312"/>
<circle cx="74.7897" cy="34.9598" r="1.87285" fill="#EE4312"/>
<circle cx="24.847" cy="44.9483" r="1.87285" fill="#EE4312"/>
<circle cx="34.8356" cy="44.9483" r="1.87285" fill="#EE4312"/>
<circle cx="44.8241" cy="44.9483" r="1.87285" fill="#EE4312"/>
<circle cx="54.8126" cy="44.9483" r="1.87285" fill="#EE4312"/>
<circle cx="64.8011" cy="44.9483" r="1.87285" fill="#EE4312"/>
<circle cx="74.7897" cy="44.9483" r="1.87285" fill="#EE4312"/>
<circle cx="24.847" cy="54.9368" r="1.87285" fill="#EE4312"/>
<circle cx="34.8356" cy="54.9368" r="1.87285" fill="#EE4312"/>
<circle cx="44.8241" cy="54.9368" r="1.87285" fill="#EE4312"/>
<circle cx="54.8126" cy="54.9368" r="1.87285" fill="#EE4312"/>
<circle cx="64.8011" cy="54.9368" r="1.87285" fill="#EE4312"/>
<circle cx="74.7897" cy="54.9368" r="1.87285" fill="#EE4312"/>
<circle cx="24.847" cy="64.9253" r="1.87285" fill="#EE4312"/>
<circle cx="34.8356" cy="64.9253" r="1.87285" fill="#EE4312"/>
<circle cx="44.8241" cy="64.9253" r="1.87285" fill="#EE4312"/>
<circle cx="54.8126" cy="64.9253" r="1.87285" fill="#EE4312"/>
<circle cx="64.8011" cy="64.9253" r="1.87285" fill="#EE4312"/>
<circle cx="74.7897" cy="64.9253" r="1.87285" fill="#EE4312"/>
<circle cx="24.847" cy="74.9139" r="1.87285" fill="#EE4312"/>
<circle cx="34.8356" cy="74.9139" r="1.87285" fill="#EE4312"/>
<circle cx="44.8241" cy="74.9139" r="1.87285" fill="#EE4312"/>
<circle cx="54.8126" cy="74.9139" r="1.87285" fill="#EE4312"/>
<circle cx="64.8011" cy="74.9139" r="1.87285" fill="#EE4312"/>
<circle cx="74.7897" cy="74.9139" r="1.87285" fill="#EE4312"/>
</svg>
