<svg width="101" height="100" viewBox="0 0 101 100" fill="none" xmlns="http://www.w3.org/2000/svg">
<circle cx="36.4375" cy="61.5625" r="0.9375" fill="#0E1947"/>
<circle cx="41.989" cy="61.5625" r="0.9375" fill="#0E1947"/>
<circle cx="47.5404" cy="61.5625" r="0.9375" fill="#0E1947"/>
<circle cx="53.0919" cy="61.5625" r="0.9375" fill="#0E1947"/>
<circle cx="58.6434" cy="61.5625" r="0.9375" fill="#0E1947"/>
<circle cx="64.1948" cy="61.5625" r="0.9375" fill="#0E1947"/>
<circle cx="36.4375" cy="67.114" r="0.9375" fill="#0E1947"/>
<circle cx="41.989" cy="67.114" r="0.9375" fill="#0E1947"/>
<circle cx="47.5404" cy="67.114" r="0.9375" fill="#0E1947"/>
<circle cx="53.0919" cy="67.114" r="0.9375" fill="#0E1947"/>
<circle cx="58.6434" cy="67.114" r="0.9375" fill="#0E1947"/>
<circle cx="64.1948" cy="67.114" r="0.9375" fill="#0E1947"/>
<circle cx="36.4375" cy="72.6655" r="0.9375" fill="#0E1947"/>
<circle cx="41.989" cy="72.6655" r="0.9375" fill="#0E1947"/>
<circle cx="47.5404" cy="72.6655" r="0.9375" fill="#0E1947"/>
<circle cx="53.0919" cy="72.6655" r="0.9375" fill="#0E1947"/>
<circle cx="58.6434" cy="72.6655" r="0.9375" fill="#0E1947"/>
<circle cx="64.1948" cy="72.6655" r="0.9375" fill="#0E1947"/>
<circle cx="36.4375" cy="78.2168" r="0.9375" fill="#0E1947"/>
<circle cx="41.989" cy="78.2168" r="0.9375" fill="#0E1947"/>
<circle cx="47.5404" cy="78.2168" r="0.9375" fill="#0E1947"/>
<circle cx="53.0919" cy="78.2168" r="0.9375" fill="#0E1947"/>
<circle cx="58.6434" cy="78.2168" r="0.9375" fill="#0E1947"/>
<circle cx="64.1948" cy="78.2168" r="0.9375" fill="#0E1947"/>
<circle cx="36.4375" cy="83.7683" r="0.9375" fill="#0E1947"/>
<circle cx="41.989" cy="83.7683" r="0.9375" fill="#0E1947"/>
<circle cx="47.5404" cy="83.7683" r="0.9375" fill="#0E1947"/>
<circle cx="53.0919" cy="83.7683" r="0.9375" fill="#0E1947"/>
<circle cx="58.6434" cy="83.7683" r="0.9375" fill="#0E1947"/>
<circle cx="64.1948" cy="83.7683" r="0.9375" fill="#0E1947"/>
<circle cx="36.4375" cy="89.3198" r="0.9375" fill="#0E1947"/>
<circle cx="41.989" cy="89.3198" r="0.9375" fill="#0E1947"/>
<circle cx="47.5404" cy="89.3198" r="0.9375" fill="#0E1947"/>
<circle cx="53.0919" cy="89.3198" r="0.9375" fill="#0E1947"/>
<circle cx="58.6434" cy="89.3198" r="0.9375" fill="#0E1947"/>
<circle cx="64.1948" cy="89.3198" r="0.9375" fill="#0E1947"/>
<path d="M26.375 93.4195C23.3174 88.9869 21.523 83.8061 21.1839 78.4319C20.8448 73.0577 21.9739 67.6925 24.4501 62.9107C26.9263 58.1289 30.6565 54.1107 35.2413 51.2863C39.826 48.4619 45.0926 46.9377 50.4772 46.8769C55.8617 46.8161 61.1614 48.2209 65.8088 50.941C70.4562 53.6612 74.2762 57.5941 76.8598 62.3187C79.4434 67.0433 80.6934 72.3817 80.4757 77.7621C80.2582 83.1426 78.5812 88.3626 75.6245 92.8632L71.4337 90.11C73.891 86.3696 75.2847 82.0312 75.4656 77.5595C75.6464 73.0878 74.6076 68.6511 72.4604 64.7245C70.3131 60.7979 67.1383 57.5292 63.2759 55.2686C59.4135 53.0079 55.0089 51.8403 50.5338 51.8909C46.0587 51.9414 41.6817 53.2082 37.8713 55.5555C34.0609 57.9029 30.9608 61.2424 28.9028 65.2165C26.8448 69.1906 25.9064 73.6497 26.1882 78.1162C26.4701 82.5827 27.9614 86.8884 30.5026 90.5723L26.375 93.4195Z" fill="#EE4312"/>
<path d="M67.375 35.3125C67.375 44.4597 59.9597 51.875 50.8125 51.875C41.6653 51.875 34.25 44.4597 34.25 35.3125C34.25 26.1653 41.6653 18.75 50.8125 18.75C59.9597 18.75 67.375 26.1653 67.375 35.3125ZM39.2549 35.3125C39.2549 41.6956 44.4294 46.8701 50.8125 46.8701C57.1956 46.8701 62.3701 41.6956 62.3701 35.3125C62.3701 28.9294 57.1956 23.7549 50.8125 23.7549C44.4294 23.7549 39.2549 28.9294 39.2549 35.3125Z" fill="#EE4312"/>
<path d="M0.5 50C0.499999 56.5661 1.79329 63.0679 4.30602 69.1342C6.81876 75.2004 10.5017 80.7124 15.1447 85.3553C19.7876 89.9983 25.2995 93.6812 31.3658 96.194C37.4321 98.7067 43.9339 100 50.5 100C57.0661 100 63.5679 98.7067 69.6342 96.194C75.7004 93.6812 81.2124 89.9983 85.8553 85.3553C90.4983 80.7124 94.1812 75.2005 96.694 69.1342C99.2067 63.0679 100.5 56.5661 100.5 50H95.5C95.5 55.9095 94.336 61.7611 92.0746 67.2208C89.8131 72.6804 86.4984 77.6412 82.3198 81.8198C78.1412 85.9984 73.1804 89.3131 67.7208 91.5746C62.2611 93.836 56.4095 95 50.5 95C44.5905 95 38.7389 93.836 33.2792 91.5746C27.8196 89.3131 22.8588 85.9984 18.6802 81.8198C14.5016 77.6412 11.1869 72.6804 8.92542 67.2207C6.66396 61.7611 5.5 55.9095 5.5 50H0.5Z" fill="#0E1947"/>
<path d="M98.7963 37.0591C95.9475 26.4274 89.6703 17.0328 80.9381 10.3323C72.2059 3.63188 61.5067 2.75546e-06 50.5 0C39.4933 -2.75546e-06 28.7942 3.63187 20.0619 10.3323C11.3297 17.0328 5.05246 26.4274 2.20371 37.059L7.03334 38.3531C9.59722 28.7846 15.2468 20.3295 23.1057 14.2991C30.9647 8.26868 40.594 5 50.5 5C60.4061 5 70.0353 8.26869 77.8943 14.2991C85.7533 20.3295 91.4028 28.7847 93.9667 38.3532L98.7963 37.0591Z" fill="#0E1947"/>
</svg>
