<svg width="101" height="100" viewBox="0 0 101 100" fill="none" xmlns="http://www.w3.org/2000/svg">
<path d="M100.5 50C100.5 63.2608 95.2322 75.9785 85.8553 85.3553C76.4785 94.7322 63.7608 100 50.5 100C37.2392 100 24.5215 94.7322 15.1447 85.3553C5.76784 75.9785 0.499998 63.2608 0.499998 50L5.5 50C5.5 61.9347 10.2411 73.3807 18.6802 81.8198C27.1193 90.2589 38.5653 95 50.5 95C62.4347 95 73.8807 90.2589 82.3198 81.8198C90.7589 73.3807 95.5 61.9347 95.5 50L100.5 50Z" fill="#0E1947"/>
<circle cx="30.1875" cy="41.5625" r="0.9375" transform="rotate(-90 30.1875 41.5625)" fill="#0E1947"/>
<circle cx="30.1875" cy="33.4375" r="0.9375" transform="rotate(-90 30.1875 33.4375)" fill="#0E1947"/>
<circle cx="30.1875" cy="25.3125" r="0.9375" transform="rotate(-90 30.1875 25.3125)" fill="#0E1947"/>
<circle cx="30.1875" cy="17.1875" r="0.9375" transform="rotate(-90 30.1875 17.1875)" fill="#0E1947"/>
<circle cx="30.1875" cy="9.0625" r="0.9375" transform="rotate(-90 30.1875 9.0625)" fill="#0E1947"/>
<circle cx="30.1875" cy="0.9375" r="0.9375" transform="rotate(-90 30.1875 0.9375)" fill="#0E1947"/>
<circle cx="38.3125" cy="41.5625" r="0.9375" transform="rotate(-90 38.3125 41.5625)" fill="#0E1947"/>
<circle cx="38.3125" cy="33.4375" r="0.9375" transform="rotate(-90 38.3125 33.4375)" fill="#0E1947"/>
<circle cx="38.3125" cy="25.3125" r="0.9375" transform="rotate(-90 38.3125 25.3125)" fill="#0E1947"/>
<circle cx="38.3125" cy="17.1875" r="0.9375" transform="rotate(-90 38.3125 17.1875)" fill="#0E1947"/>
<circle cx="38.3125" cy="9.0625" r="0.9375" transform="rotate(-90 38.3125 9.0625)" fill="#0E1947"/>
<circle cx="38.3125" cy="0.9375" r="0.9375" transform="rotate(-90 38.3125 0.9375)" fill="#0E1947"/>
<circle cx="46.4375" cy="41.5625" r="0.9375" transform="rotate(-90 46.4375 41.5625)" fill="#0E1947"/>
<circle cx="46.4375" cy="33.4375" r="0.9375" transform="rotate(-90 46.4375 33.4375)" fill="#0E1947"/>
<circle cx="46.4375" cy="25.3125" r="0.9375" transform="rotate(-90 46.4375 25.3125)" fill="#0E1947"/>
<circle cx="46.4375" cy="17.1875" r="0.9375" transform="rotate(-90 46.4375 17.1875)" fill="#0E1947"/>
<circle cx="46.4375" cy="9.0625" r="0.9375" transform="rotate(-90 46.4375 9.0625)" fill="#0E1947"/>
<circle cx="46.4375" cy="0.9375" r="0.9375" transform="rotate(-90 46.4375 0.9375)" fill="#0E1947"/>
<circle cx="54.5625" cy="41.5625" r="0.9375" transform="rotate(-90 54.5625 41.5625)" fill="#0E1947"/>
<circle cx="54.5625" cy="33.4375" r="0.9375" transform="rotate(-90 54.5625 33.4375)" fill="#0E1947"/>
<circle cx="54.5625" cy="25.3125" r="0.9375" transform="rotate(-90 54.5625 25.3125)" fill="#0E1947"/>
<circle cx="54.5625" cy="17.1875" r="0.9375" transform="rotate(-90 54.5625 17.1875)" fill="#0E1947"/>
<circle cx="54.5625" cy="9.0625" r="0.9375" transform="rotate(-90 54.5625 9.0625)" fill="#0E1947"/>
<circle cx="54.5625" cy="0.9375" r="0.9375" transform="rotate(-90 54.5625 0.9375)" fill="#0E1947"/>
<circle cx="62.6875" cy="41.5625" r="0.9375" transform="rotate(-90 62.6875 41.5625)" fill="#0E1947"/>
<circle cx="62.6875" cy="33.4375" r="0.9375" transform="rotate(-90 62.6875 33.4375)" fill="#0E1947"/>
<circle cx="62.6875" cy="25.3125" r="0.9375" transform="rotate(-90 62.6875 25.3125)" fill="#0E1947"/>
<circle cx="62.6875" cy="17.1875" r="0.9375" transform="rotate(-90 62.6875 17.1875)" fill="#0E1947"/>
<circle cx="62.6875" cy="9.0625" r="0.9375" transform="rotate(-90 62.6875 9.0625)" fill="#0E1947"/>
<circle cx="62.6875" cy="0.9375" r="0.9375" transform="rotate(-90 62.6875 0.9375)" fill="#0E1947"/>
<circle cx="70.8125" cy="41.5625" r="0.9375" transform="rotate(-90 70.8125 41.5625)" fill="#0E1947"/>
<circle cx="70.8125" cy="33.4375" r="0.9375" transform="rotate(-90 70.8125 33.4375)" fill="#0E1947"/>
<circle cx="70.8125" cy="25.3125" r="0.9375" transform="rotate(-90 70.8125 25.3125)" fill="#0E1947"/>
<circle cx="70.8125" cy="17.1875" r="0.9375" transform="rotate(-90 70.8125 17.1875)" fill="#0E1947"/>
<circle cx="70.8125" cy="9.0625" r="0.9375" transform="rotate(-90 70.8125 9.0625)" fill="#0E1947"/>
<circle cx="70.8125" cy="0.9375" r="0.9375" transform="rotate(-90 70.8125 0.9375)" fill="#0E1947"/>
<rect x="35.1875" y="88.75" width="63.75" height="6.25" transform="rotate(-90 35.1875 88.75)" fill="#EE4312"/>
<rect x="58.9375" y="88.75" width="76.25" height="6.25" transform="rotate(-90 58.9375 88.75)" fill="#EE4312"/>
<rect x="11.4375" y="65.625" width="28.125" height="6.25" transform="rotate(-90 11.4375 65.625)" fill="#EE4312"/>
<rect x="82.6875" y="65.625" width="65.625" height="6.25" transform="rotate(-90 82.6875 65.625)" fill="#EE4312"/>
</svg>
