<svg width="109" height="120" viewBox="0 0 109 120" fill="none" xmlns="http://www.w3.org/2000/svg">
<circle cx="37.1506" cy="2.16892" r="2.16867" fill="#EE4312"/>
<circle cx="48.7169" cy="2.16892" r="2.16867" fill="#EE4312"/>
<circle cx="60.2831" cy="2.16892" r="2.16867" fill="#EE4312"/>
<circle cx="71.8494" cy="2.16892" r="2.16867" fill="#EE4312"/>
<circle cx="83.4157" cy="2.16892" r="2.16867" fill="#EE4312"/>
<circle cx="94.9819" cy="2.16892" r="2.16867" fill="#EE4312"/>
<circle cx="106.548" cy="2.16892" r="2.16867" fill="#EE4312"/>
<circle cx="37.1506" cy="13.7351" r="2.16867" fill="#EE4312"/>
<circle cx="48.7169" cy="13.7351" r="2.16867" fill="#EE4312"/>
<circle cx="60.2832" cy="13.7351" r="2.16867" fill="#EE4312"/>
<circle cx="71.8494" cy="13.7351" r="2.16867" fill="#EE4312"/>
<circle cx="83.4157" cy="13.7351" r="2.16867" fill="#EE4312"/>
<circle cx="94.982" cy="13.7351" r="2.16867" fill="#EE4312"/>
<circle cx="106.548" cy="13.7351" r="2.16867" fill="#EE4312"/>
<circle cx="37.1506" cy="25.3015" r="2.16867" fill="#EE4312"/>
<circle cx="48.7169" cy="25.3015" r="2.16867" fill="#EE4312"/>
<circle cx="60.2832" cy="25.3015" r="2.16867" fill="#EE4312"/>
<circle cx="71.8494" cy="25.3015" r="2.16867" fill="#EE4312"/>
<circle cx="83.4157" cy="25.3015" r="2.16867" fill="#EE4312"/>
<circle cx="94.982" cy="25.3015" r="2.16867" fill="#EE4312"/>
<circle cx="106.548" cy="25.3015" r="2.16867" fill="#EE4312"/>
<circle cx="37.1506" cy="36.8676" r="2.16867" fill="#EE4312"/>
<circle cx="48.7169" cy="36.8676" r="2.16867" fill="#EE4312"/>
<circle cx="60.2832" cy="36.8676" r="2.16867" fill="#EE4312"/>
<circle cx="71.8494" cy="36.8676" r="2.16867" fill="#EE4312"/>
<circle cx="83.4157" cy="36.8676" r="2.16867" fill="#EE4312"/>
<circle cx="94.982" cy="36.8676" r="2.16867" fill="#EE4312"/>
<circle cx="106.548" cy="36.8676" r="2.16867" fill="#EE4312"/>
<circle cx="37.1506" cy="48.4338" r="2.16867" fill="#EE4312"/>
<circle cx="48.7169" cy="48.4338" r="2.16867" fill="#EE4312"/>
<circle cx="60.2832" cy="48.4338" r="2.16867" fill="#EE4312"/>
<circle cx="71.8494" cy="48.4338" r="2.16867" fill="#EE4312"/>
<circle cx="83.4157" cy="48.4338" r="2.16867" fill="#EE4312"/>
<circle cx="94.982" cy="48.4338" r="2.16867" fill="#EE4312"/>
<circle cx="106.548" cy="48.4338" r="2.16867" fill="#EE4312"/>
<circle cx="37.1506" cy="60.0005" r="2.16867" fill="#EE4312"/>
<circle cx="48.7169" cy="60.0005" r="2.16867" fill="#EE4312"/>
<circle cx="60.2832" cy="60.0005" r="2.16867" fill="#EE4312"/>
<circle cx="37.1506" cy="71.5666" r="2.16867" fill="#EE4312"/>
<circle cx="48.7169" cy="71.5666" r="2.16867" fill="#EE4312"/>
<circle cx="37.1506" cy="83.1328" r="2.16867" fill="#EE4312"/>
<circle cx="37.1506" cy="94.699" r="2.16867" fill="#EE4312"/>
<circle cx="37.1506" cy="106.265" r="2.16867" fill="#EE4312"/>
<circle cx="48.7169" cy="106.265" r="2.16867" fill="#EE4312"/>
<circle cx="37.1506" cy="117.832" r="2.16867" fill="#EE4312"/>
<circle cx="48.7169" cy="117.832" r="2.16867" fill="#EE4312"/>
<circle cx="60.2832" cy="117.832" r="2.16867" fill="#EE4312"/>
<g clip-path="url(#clip0_25_605)">
<path d="M2.75085 -13.012L216.704 110.514" stroke="#0E1947" stroke-width="1.80723"/>
<path d="M-2.0564 -4.68555L211.897 118.84" stroke="#0E1947" stroke-width="1.80723"/>
<path d="M-6.86359 3.64087L207.09 127.167" stroke="#0E1947" stroke-width="1.80723"/>
<path d="M-11.6708 11.9673L202.282 135.493" stroke="#0E1947" stroke-width="1.80723"/>
<path d="M-16.478 20.2937L197.475 143.82" stroke="#0E1947" stroke-width="1.80723"/>
<path d="M-21.2853 28.6201L192.668 152.146" stroke="#0E1947" stroke-width="1.80723"/>
<path d="M-26.0925 36.9463L187.861 160.472" stroke="#0E1947" stroke-width="1.80723"/>
<path d="M-30.8998 45.2727L183.053 168.799" stroke="#0E1947" stroke-width="1.80723"/>
<path d="M-35.707 53.5989L178.246 177.125" stroke="#0E1947" stroke-width="1.80723"/>
<path d="M-40.5142 61.9253L173.439 185.451" stroke="#0E1947" stroke-width="1.80723"/>
<path d="M-45.3215 70.2517L168.632 193.778" stroke="#0E1947" stroke-width="1.80723"/>
<path d="M-50.1287 78.5784L163.824 202.104" stroke="#0E1947" stroke-width="1.80723"/>
<path d="M-54.9359 86.9045L159.017 210.43" stroke="#0E1947" stroke-width="1.80723"/>
<path d="M-59.7432 95.231L154.21 218.757" stroke="#0E1947" stroke-width="1.80723"/>
<path d="M-64.5504 103.557L149.403 227.083" stroke="#0E1947" stroke-width="1.80723"/>
<path d="M-69.3576 111.884L144.596 235.409" stroke="#0E1947" stroke-width="1.80723"/>
<path d="M-74.1649 120.21L139.788 243.736" stroke="#0E1947" stroke-width="1.80723"/>
</g>
<path d="M108.717 88.9159C108.717 94.4919 107.063 99.9427 103.966 104.579C100.868 109.215 96.4646 112.829 91.313 114.963C86.1615 117.096 80.4929 117.655 75.024 116.567C69.5551 115.479 64.5317 112.794 60.5888 108.851C56.646 104.908 53.9609 99.8849 52.8731 94.4161C51.7853 88.9472 52.3436 83.2786 54.4774 78.127C56.6113 72.9755 60.2248 68.5723 64.8611 65.4745C69.4973 62.3766 74.9481 60.7231 80.5241 60.7231V66.4857C76.0879 66.4857 71.7512 67.8012 68.0626 70.2659C64.374 72.7306 61.499 76.2337 59.8013 80.3323C58.1037 84.4308 57.6595 88.9408 58.5249 93.2918C59.3904 97.6429 61.5267 101.64 64.6636 104.776C67.8005 107.913 71.7972 110.05 76.1482 110.915C80.4993 111.781 85.0092 111.336 89.1078 109.639C93.2064 107.941 96.7095 105.066 99.1741 101.377C101.639 97.6888 102.954 93.3522 102.954 88.9159H108.717Z" fill="#0E1947"/>
<path d="M67.5121 81.5179L80.6363 94.6989L106.548 68.6748" stroke="#0E1947" stroke-width="5.78313"/>
<path d="M92.8133 63.6145L80.3434 70.814L80.3434 56.415L92.8133 63.6145Z" fill="#0E1947"/>
<defs>
<clipPath id="clip0_25_605">
<rect width="120" height="27.4699" fill="white" transform="matrix(4.37114e-08 1 1 -4.37114e-08 0.283142 0)"/>
</clipPath>
</defs>
</svg>
