<svg width="101" height="100" viewBox="0 0 101 100" fill="none" xmlns="http://www.w3.org/2000/svg">
<circle cx="58.9375" cy="0.9375" r="0.9375" fill="#0E1947"/>
<circle cx="67.0625" cy="0.9375" r="0.9375" fill="#0E1947"/>
<circle cx="75.1875" cy="0.9375" r="0.9375" fill="#0E1947"/>
<circle cx="83.3125" cy="0.9375" r="0.9375" fill="#0E1947"/>
<circle cx="91.4375" cy="0.9375" r="0.9375" fill="#0E1947"/>
<circle cx="99.5625" cy="0.9375" r="0.9375" fill="#0E1947"/>
<circle cx="58.9375" cy="9.0625" r="0.9375" fill="#0E1947"/>
<circle cx="67.0625" cy="9.0625" r="0.9375" fill="#0E1947"/>
<circle cx="75.1875" cy="9.0625" r="0.9375" fill="#0E1947"/>
<circle cx="83.3125" cy="9.0625" r="0.9375" fill="#0E1947"/>
<circle cx="91.4375" cy="9.0625" r="0.9375" fill="#0E1947"/>
<circle cx="99.5625" cy="9.0625" r="0.9375" fill="#0E1947"/>
<circle cx="58.9375" cy="17.1875" r="0.9375" fill="#0E1947"/>
<circle cx="67.0625" cy="17.1875" r="0.9375" fill="#0E1947"/>
<circle cx="75.1875" cy="17.1875" r="0.9375" fill="#0E1947"/>
<circle cx="83.3125" cy="17.1875" r="0.9375" fill="#0E1947"/>
<circle cx="91.4375" cy="17.1875" r="0.9375" fill="#0E1947"/>
<circle cx="99.5625" cy="17.1875" r="0.9375" fill="#0E1947"/>
<circle cx="58.9375" cy="25.3125" r="0.9375" fill="#0E1947"/>
<circle cx="67.0625" cy="25.3125" r="0.9375" fill="#0E1947"/>
<circle cx="75.1875" cy="25.3125" r="0.9375" fill="#0E1947"/>
<circle cx="83.3125" cy="25.3125" r="0.9375" fill="#0E1947"/>
<circle cx="91.4375" cy="25.3125" r="0.9375" fill="#0E1947"/>
<circle cx="99.5625" cy="25.3125" r="0.9375" fill="#0E1947"/>
<circle cx="58.9375" cy="33.4375" r="0.9375" fill="#0E1947"/>
<circle cx="67.0625" cy="33.4375" r="0.9375" fill="#0E1947"/>
<circle cx="75.1875" cy="33.4375" r="0.9375" fill="#0E1947"/>
<circle cx="83.3125" cy="33.4375" r="0.9375" fill="#0E1947"/>
<circle cx="91.4375" cy="33.4375" r="0.9375" fill="#0E1947"/>
<circle cx="99.5625" cy="33.4375" r="0.9375" fill="#0E1947"/>
<circle cx="58.9375" cy="41.5625" r="0.9375" fill="#0E1947"/>
<circle cx="67.0625" cy="41.5625" r="0.9375" fill="#0E1947"/>
<circle cx="75.1875" cy="41.5625" r="0.9375" fill="#0E1947"/>
<circle cx="83.3125" cy="41.5625" r="0.9375" fill="#0E1947"/>
<circle cx="91.4375" cy="41.5625" r="0.9375" fill="#0E1947"/>
<circle cx="99.5625" cy="41.5625" r="0.9375" fill="#0E1947"/>
<path d="M16.125 47.1753L41.3405 72.5L91.125 22.5" stroke="#EE4312" stroke-width="5"/>
<path d="M100.5 50C100.5 59.8891 97.5676 69.5561 92.0735 77.7785C86.5794 86.001 78.7705 92.4096 69.6342 96.194C60.4979 99.9784 50.4445 100.969 40.7455 99.0393C31.0464 97.11 22.1373 92.348 15.1447 85.3553C8.15204 78.3627 3.39 69.4536 1.46074 59.7545C-0.468525 50.0555 0.521642 40.0021 4.30602 30.8658C8.09041 21.7295 14.499 13.9206 22.7215 8.42652C30.9439 2.93245 40.6109 -1.17926e-07 50.5 0V5C41.5998 5 32.8996 7.6392 25.4993 12.5839C18.0991 17.5285 12.3314 24.5566 8.92542 32.7792C5.51948 41.0019 4.62833 50.0499 6.36466 58.7791C8.101 67.5082 12.3868 75.5264 18.6802 81.8198C24.9736 88.1132 32.9918 92.399 41.7209 94.1353C50.4501 95.8717 59.4981 94.9805 67.7208 91.5746C75.9434 88.1686 82.9715 82.4009 87.9161 75.0007C92.8608 67.6004 95.5 58.9002 95.5 50H100.5Z" fill="#0E1947"/>
</svg>
