<svg width="101" height="100" viewBox="0 0 101 100" fill="none" xmlns="http://www.w3.org/2000/svg">
<path d="M100.5 50C100.5 77.6142 78.1142 100 50.5 100C22.8858 100 0.5 77.6142 0.5 50C0.5 22.3858 22.8858 0 50.5 0C78.1142 0 100.5 22.3858 100.5 50ZM5.5 50C5.5 74.8528 25.6472 95 50.5 95C75.3528 95 95.5 74.8528 95.5 50C95.5 25.1472 75.3528 5 50.5 5C25.6472 5 5.5 25.1472 5.5 50Z" fill="#0E1947"/>
<path d="M32.7335 32.2335C38.8682 26.0988 46.9403 22.281 55.5744 21.4306C64.2084 20.5802 72.8702 22.7499 80.0839 27.5699C87.2976 32.3899 92.6168 39.5621 95.1353 47.8643C97.6537 56.1666 97.2156 65.0852 93.8955 73.1006C90.5754 81.116 84.5788 87.7323 76.9274 91.822C69.276 95.9118 60.4432 97.222 51.9341 95.5294C43.425 93.8369 35.766 89.2462 30.2621 82.5397C24.7582 75.8332 21.75 67.4258 21.75 58.75H26.7576C26.7576 66.2673 29.3642 73.552 34.1331 79.3629C38.902 85.1739 45.5382 89.1515 52.9111 90.618C60.2839 92.0846 67.9371 90.9493 74.5668 87.4057C81.1964 83.8621 86.3923 78.1293 89.269 71.1843C92.1458 64.2392 92.5254 56.5116 90.3432 49.318C88.1611 42.1244 83.5522 35.91 77.3018 31.7336C71.0514 27.5572 63.5463 25.6773 56.0652 26.4141C48.5841 27.1509 41.5899 30.4589 36.2744 35.7744L32.7335 32.2335Z" fill="#EE4312"/>
<circle cx="45.3713" cy="44.8711" r="0.9375" fill="#EE4312"/>
<circle cx="50.9228" cy="44.8711" r="0.9375" fill="#EE4312"/>
<circle cx="56.4743" cy="44.8711" r="0.9375" fill="#EE4312"/>
<circle cx="62.0258" cy="44.8711" r="0.9375" fill="#EE4312"/>
<circle cx="67.5772" cy="44.8711" r="0.9375" fill="#EE4312"/>
<circle cx="73.1287" cy="44.8711" r="0.9375" fill="#EE4312"/>
<circle cx="45.3713" cy="50.4226" r="0.9375" fill="#EE4312"/>
<circle cx="50.9228" cy="50.4226" r="0.9375" fill="#EE4312"/>
<circle cx="56.4743" cy="50.4226" r="0.9375" fill="#EE4312"/>
<circle cx="62.0258" cy="50.4226" r="0.9375" fill="#EE4312"/>
<circle cx="67.5772" cy="50.4226" r="0.9375" fill="#EE4312"/>
<circle cx="73.1287" cy="50.4226" r="0.9375" fill="#EE4312"/>
<circle cx="45.3713" cy="55.9741" r="0.9375" fill="#EE4312"/>
<circle cx="50.9228" cy="55.9741" r="0.9375" fill="#EE4312"/>
<circle cx="56.4743" cy="55.9741" r="0.9375" fill="#EE4312"/>
<circle cx="62.0258" cy="55.9741" r="0.9375" fill="#EE4312"/>
<circle cx="67.5772" cy="55.9741" r="0.9375" fill="#EE4312"/>
<circle cx="73.1287" cy="55.9741" r="0.9375" fill="#EE4312"/>
<circle cx="45.3713" cy="61.5254" r="0.9375" fill="#EE4312"/>
<circle cx="50.9228" cy="61.5254" r="0.9375" fill="#EE4312"/>
<circle cx="56.4743" cy="61.5254" r="0.9375" fill="#EE4312"/>
<circle cx="62.0258" cy="61.5254" r="0.9375" fill="#EE4312"/>
<circle cx="67.5772" cy="61.5254" r="0.9375" fill="#EE4312"/>
<circle cx="73.1287" cy="61.5254" r="0.9375" fill="#EE4312"/>
<circle cx="45.3713" cy="67.0769" r="0.9375" fill="#EE4312"/>
<circle cx="50.9228" cy="67.0769" r="0.9375" fill="#EE4312"/>
<circle cx="56.4743" cy="67.0769" r="0.9375" fill="#EE4312"/>
<circle cx="62.0258" cy="67.0769" r="0.9375" fill="#EE4312"/>
<circle cx="67.5772" cy="67.0769" r="0.9375" fill="#EE4312"/>
<circle cx="73.1287" cy="67.0769" r="0.9375" fill="#EE4312"/>
<circle cx="45.3713" cy="72.6284" r="0.9375" fill="#EE4312"/>
<circle cx="50.9228" cy="72.6284" r="0.9375" fill="#EE4312"/>
<circle cx="56.4743" cy="72.6284" r="0.9375" fill="#EE4312"/>
<circle cx="62.0258" cy="72.6284" r="0.9375" fill="#EE4312"/>
<circle cx="67.5772" cy="72.6284" r="0.9375" fill="#EE4312"/>
<circle cx="73.1287" cy="72.6284" r="0.9375" fill="#EE4312"/>
<path d="M24.25 47.5L30.7452 58.75H17.7548L24.25 47.5Z" fill="#EE4312"/>
</svg>
