<svg width="109" height="120" viewBox="0 0 109 120" fill="none" xmlns="http://www.w3.org/2000/svg">
<circle cx="37.1506" cy="2.16892" r="2.16867" fill="#EE4312"/>
<circle cx="37.1506" cy="13.7351" r="2.16867" fill="#EE4312"/>
<circle cx="48.7169" cy="13.7351" r="2.16867" fill="#EE4312"/>
<circle cx="37.1506" cy="25.3015" r="2.16867" fill="#EE4312"/>
<circle cx="48.7169" cy="25.3015" r="2.16867" fill="#EE4312"/>
<circle cx="60.2832" cy="25.3015" r="2.16867" fill="#EE4312"/>
<circle cx="37.1506" cy="36.8676" r="2.16867" fill="#EE4312"/>
<circle cx="48.7169" cy="36.8676" r="2.16867" fill="#EE4312"/>
<circle cx="60.2832" cy="36.8676" r="2.16867" fill="#EE4312"/>
<circle cx="71.8495" cy="36.8676" r="2.16867" fill="#EE4312"/>
<circle cx="37.1506" cy="48.4338" r="2.16867" fill="#EE4312"/>
<circle cx="48.7169" cy="48.4338" r="2.16867" fill="#EE4312"/>
<circle cx="60.2832" cy="48.4338" r="2.16867" fill="#EE4312"/>
<circle cx="71.8495" cy="48.4338" r="2.16867" fill="#EE4312"/>
<circle cx="83.4156" cy="48.4338" r="2.16867" fill="#EE4312"/>
<circle cx="37.1505" cy="60.0005" r="2.16867" fill="#EE4312"/>
<circle cx="48.7168" cy="60.0005" r="2.16867" fill="#EE4312"/>
<circle cx="60.2831" cy="60.0005" r="2.16867" fill="#EE4312"/>
<circle cx="71.8493" cy="60.0005" r="2.16867" fill="#EE4312"/>
<circle cx="83.4155" cy="60.0005" r="2.16867" fill="#EE4312"/>
<circle cx="94.9818" cy="60.0005" r="2.16867" fill="#EE4312"/>
<circle cx="37.1506" cy="71.5666" r="2.16867" fill="#EE4312"/>
<circle cx="48.7169" cy="71.5666" r="2.16867" fill="#EE4312"/>
<circle cx="60.2832" cy="71.5666" r="2.16867" fill="#EE4312"/>
<circle cx="71.8495" cy="71.5666" r="2.16867" fill="#EE4312"/>
<circle cx="83.4156" cy="71.5666" r="2.16867" fill="#EE4312"/>
<circle cx="94.9819" cy="71.5666" r="2.16867" fill="#EE4312"/>
<circle cx="106.548" cy="71.5666" r="2.16867" fill="#EE4312"/>
<circle cx="37.1506" cy="83.1328" r="2.16867" fill="#EE4312"/>
<circle cx="48.7169" cy="83.1328" r="2.16867" fill="#EE4312"/>
<circle cx="60.2832" cy="83.1328" r="2.16867" fill="#EE4312"/>
<circle cx="71.8495" cy="83.1328" r="2.16867" fill="#EE4312"/>
<circle cx="83.4156" cy="83.1328" r="2.16867" fill="#EE4312"/>
<circle cx="94.9819" cy="83.1328" r="2.16867" fill="#EE4312"/>
<circle cx="106.548" cy="83.1328" r="2.16867" fill="#EE4312"/>
<circle cx="37.1506" cy="94.699" r="2.16867" fill="#EE4312"/>
<circle cx="48.7169" cy="94.699" r="2.16867" fill="#EE4312"/>
<circle cx="60.2832" cy="94.699" r="2.16867" fill="#EE4312"/>
<circle cx="71.8495" cy="94.699" r="2.16867" fill="#EE4312"/>
<circle cx="83.4156" cy="94.699" r="2.16867" fill="#EE4312"/>
<circle cx="94.9819" cy="94.699" r="2.16867" fill="#EE4312"/>
<circle cx="106.548" cy="94.699" r="2.16867" fill="#EE4312"/>
<circle cx="37.1506" cy="106.265" r="2.16867" fill="#EE4312"/>
<circle cx="48.7169" cy="106.265" r="2.16867" fill="#EE4312"/>
<circle cx="60.2832" cy="106.265" r="2.16867" fill="#EE4312"/>
<circle cx="71.8495" cy="106.265" r="2.16867" fill="#EE4312"/>
<circle cx="83.4156" cy="106.265" r="2.16867" fill="#EE4312"/>
<circle cx="94.9819" cy="106.265" r="2.16867" fill="#EE4312"/>
<circle cx="106.548" cy="106.265" r="2.16867" fill="#EE4312"/>
<circle cx="37.1506" cy="117.832" r="2.16867" fill="#EE4312"/>
<circle cx="48.7169" cy="117.832" r="2.16867" fill="#EE4312"/>
<circle cx="60.2832" cy="117.832" r="2.16867" fill="#EE4312"/>
<circle cx="71.8495" cy="117.832" r="2.16867" fill="#EE4312"/>
<circle cx="83.4156" cy="117.832" r="2.16867" fill="#EE4312"/>
<circle cx="94.9819" cy="117.832" r="2.16867" fill="#EE4312"/>
<circle cx="106.548" cy="117.832" r="2.16867" fill="#EE4312"/>
<g clip-path="url(#clip0_26_660)">
<path d="M2.75085 -13.012L216.704 110.514" stroke="#0E1947" stroke-width="1.80723"/>
<path d="M-2.0564 -4.68555L211.897 118.84" stroke="#0E1947" stroke-width="1.80723"/>
<path d="M-6.86365 3.64087L207.09 127.167" stroke="#0E1947" stroke-width="1.80723"/>
<path d="M-11.6708 11.9673L202.282 135.493" stroke="#0E1947" stroke-width="1.80723"/>
<path d="M-16.478 20.2937L197.475 143.82" stroke="#0E1947" stroke-width="1.80723"/>
<path d="M-21.2853 28.6201L192.668 152.146" stroke="#0E1947" stroke-width="1.80723"/>
<path d="M-26.0925 36.9463L187.861 160.472" stroke="#0E1947" stroke-width="1.80723"/>
<path d="M-30.8998 45.2727L183.053 168.799" stroke="#0E1947" stroke-width="1.80723"/>
<path d="M-35.707 53.5989L178.246 177.125" stroke="#0E1947" stroke-width="1.80723"/>
<path d="M-40.5142 61.9253L173.439 185.451" stroke="#0E1947" stroke-width="1.80723"/>
<path d="M-45.3214 70.2517L168.632 193.778" stroke="#0E1947" stroke-width="1.80723"/>
<path d="M-50.1287 78.5784L163.825 202.104" stroke="#0E1947" stroke-width="1.80723"/>
<path d="M-54.9359 86.9045L159.017 210.43" stroke="#0E1947" stroke-width="1.80723"/>
<path d="M-59.7432 95.231L154.21 218.757" stroke="#0E1947" stroke-width="1.80723"/>
<path d="M-64.5504 103.557L149.403 227.083" stroke="#0E1947" stroke-width="1.80723"/>
<path d="M-69.3575 111.884L144.596 235.409" stroke="#0E1947" stroke-width="1.80723"/>
<path d="M-74.1648 120.21L139.788 243.736" stroke="#0E1947" stroke-width="1.80723"/>
</g>
<rect x="105.044" y="7.70386" width="33.722" height="5.78313" transform="rotate(135 105.044 7.70386)" fill="#0E1947"/>
<path d="M52.3313 2.89185H105.825V56.3858" stroke="#0E1947" stroke-width="5.78313"/>
<defs>
<clipPath id="clip0_26_660">
<rect width="120" height="27.4699" fill="white" transform="matrix(4.37114e-08 1 1 -4.37114e-08 0.283081 0)"/>
</clipPath>
</defs>
</svg>
