<svg width="109" height="120" viewBox="0 0 109 120" fill="none" xmlns="http://www.w3.org/2000/svg">
<circle cx="37.1466" cy="2.16892" r="2.16867" fill="#EE4312"/>
<circle cx="48.7129" cy="2.16892" r="2.16867" fill="#EE4312"/>
<circle cx="60.2791" cy="2.16892" r="2.16867" fill="#EE4312"/>
<circle cx="71.8454" cy="2.16892" r="2.16867" fill="#EE4312"/>
<circle cx="83.4117" cy="2.16892" r="2.16867" fill="#EE4312"/>
<circle cx="94.9779" cy="2.16892" r="2.16867" fill="#EE4312"/>
<circle cx="106.544" cy="2.16892" r="2.16867" fill="#EE4312"/>
<circle cx="37.1466" cy="13.7351" r="2.16867" fill="#EE4312"/>
<circle cx="48.7129" cy="13.7351" r="2.16867" fill="#EE4312"/>
<circle cx="60.2791" cy="13.7351" r="2.16867" fill="#EE4312"/>
<circle cx="71.8454" cy="13.7351" r="2.16867" fill="#EE4312"/>
<circle cx="83.4117" cy="13.7351" r="2.16867" fill="#EE4312"/>
<circle cx="94.9779" cy="13.7351" r="2.16867" fill="#EE4312"/>
<circle cx="106.544" cy="13.7351" r="2.16867" fill="#EE4312"/>
<circle cx="37.1466" cy="25.3015" r="2.16867" fill="#EE4312"/>
<circle cx="48.7129" cy="25.3015" r="2.16867" fill="#EE4312"/>
<circle cx="60.2791" cy="25.3015" r="2.16867" fill="#EE4312"/>
<circle cx="71.8454" cy="25.3015" r="2.16867" fill="#EE4312"/>
<circle cx="83.4117" cy="25.3015" r="2.16867" fill="#EE4312"/>
<circle cx="94.9779" cy="25.3015" r="2.16867" fill="#EE4312"/>
<circle cx="106.544" cy="25.3015" r="2.16867" fill="#EE4312"/>
<circle cx="37.1466" cy="36.8676" r="2.16867" fill="#EE4312"/>
<circle cx="48.7129" cy="36.8676" r="2.16867" fill="#EE4312"/>
<circle cx="60.2791" cy="36.8676" r="2.16867" fill="#EE4312"/>
<circle cx="71.8454" cy="36.8676" r="2.16867" fill="#EE4312"/>
<circle cx="83.4117" cy="36.8676" r="2.16867" fill="#EE4312"/>
<circle cx="94.9779" cy="36.8676" r="2.16867" fill="#EE4312"/>
<circle cx="106.544" cy="36.8676" r="2.16867" fill="#EE4312"/>
<circle cx="37.1466" cy="48.4338" r="2.16867" fill="#EE4312"/>
<circle cx="48.7129" cy="48.4338" r="2.16867" fill="#EE4312"/>
<circle cx="60.2791" cy="48.4338" r="2.16867" fill="#EE4312"/>
<circle cx="71.8454" cy="48.4338" r="2.16867" fill="#EE4312"/>
<circle cx="83.4117" cy="48.4338" r="2.16867" fill="#EE4312"/>
<circle cx="94.9779" cy="48.4338" r="2.16867" fill="#EE4312"/>
<circle cx="106.544" cy="48.4338" r="2.16867" fill="#EE4312"/>
<circle cx="37.1466" cy="60.0002" r="2.16867" fill="#EE4312"/>
<circle cx="48.7129" cy="60.0002" r="2.16867" fill="#EE4312"/>
<circle cx="60.2791" cy="60.0002" r="2.16867" fill="#EE4312"/>
<circle cx="71.8454" cy="60.0002" r="2.16867" fill="#EE4312"/>
<circle cx="83.4117" cy="60.0002" r="2.16867" fill="#EE4312"/>
<circle cx="37.1466" cy="71.5666" r="2.16867" fill="#EE4312"/>
<circle cx="48.7129" cy="71.5666" r="2.16867" fill="#EE4312"/>
<circle cx="60.2791" cy="71.5666" r="2.16867" fill="#EE4312"/>
<circle cx="71.8454" cy="71.5666" r="2.16867" fill="#EE4312"/>
<circle cx="83.4117" cy="71.5666" r="2.16867" fill="#EE4312"/>
<circle cx="37.1466" cy="83.1328" r="2.16867" fill="#EE4312"/>
<circle cx="48.7129" cy="83.1328" r="2.16867" fill="#EE4312"/>
<circle cx="60.2791" cy="83.1328" r="2.16867" fill="#EE4312"/>
<circle cx="71.8454" cy="83.1328" r="2.16867" fill="#EE4312"/>
<circle cx="83.4117" cy="83.1328" r="2.16867" fill="#EE4312"/>
<circle cx="37.1466" cy="94.699" r="2.16867" fill="#EE4312"/>
<circle cx="48.7129" cy="94.699" r="2.16867" fill="#EE4312"/>
<circle cx="60.2791" cy="94.699" r="2.16867" fill="#EE4312"/>
<circle cx="71.8454" cy="94.699" r="2.16867" fill="#EE4312"/>
<circle cx="83.4117" cy="94.699" r="2.16867" fill="#EE4312"/>
<circle cx="37.1466" cy="106.265" r="2.16867" fill="#EE4312"/>
<circle cx="48.7129" cy="106.265" r="2.16867" fill="#EE4312"/>
<circle cx="60.2791" cy="106.265" r="2.16867" fill="#EE4312"/>
<circle cx="71.8454" cy="106.265" r="2.16867" fill="#EE4312"/>
<circle cx="83.4117" cy="106.265" r="2.16867" fill="#EE4312"/>
<circle cx="37.1466" cy="117.832" r="2.16867" fill="#EE4312"/>
<circle cx="48.7129" cy="117.832" r="2.16867" fill="#EE4312"/>
<circle cx="60.2791" cy="117.832" r="2.16867" fill="#EE4312"/>
<circle cx="71.8454" cy="117.832" r="2.16867" fill="#EE4312"/>
<circle cx="83.4117" cy="117.832" r="2.16867" fill="#EE4312"/>
<g clip-path="url(#clip0_24_243)">
<path d="M2.75024 -13.012L216.703 110.514" stroke="#0E1947" stroke-width="1.80723"/>
<path d="M-2.05698 -4.68555L211.896 118.84" stroke="#0E1947" stroke-width="1.80723"/>
<path d="M-6.86423 3.64087L207.089 127.167" stroke="#0E1947" stroke-width="1.80723"/>
<path d="M-11.6714 11.9673L202.282 135.493" stroke="#0E1947" stroke-width="1.80723"/>
<path d="M-16.4787 20.2937L197.475 143.82" stroke="#0E1947" stroke-width="1.80723"/>
<path d="M-21.2859 28.6201L192.667 152.146" stroke="#0E1947" stroke-width="1.80723"/>
<path d="M-26.0931 36.9463L187.86 160.472" stroke="#0E1947" stroke-width="1.80723"/>
<path d="M-30.9004 45.2722L183.053 168.798" stroke="#0E1947" stroke-width="1.80723"/>
<path d="M-35.7076 53.5989L178.246 177.125" stroke="#0E1947" stroke-width="1.80723"/>
<path d="M-40.5148 61.9253L173.438 185.451" stroke="#0E1947" stroke-width="1.80723"/>
<path d="M-45.3221 70.2517L168.631 193.778" stroke="#0E1947" stroke-width="1.80723"/>
<path d="M-50.1293 78.5784L163.824 202.104" stroke="#0E1947" stroke-width="1.80723"/>
<path d="M-54.9365 86.9045L159.017 210.43" stroke="#0E1947" stroke-width="1.80723"/>
<path d="M-59.7437 95.231L154.209 218.757" stroke="#0E1947" stroke-width="1.80723"/>
<path d="M-64.551 103.557L149.402 227.083" stroke="#0E1947" stroke-width="1.80723"/>
<path d="M-69.3582 111.884L144.595 235.409" stroke="#0E1947" stroke-width="1.80723"/>
<path d="M-74.1654 120.21L139.788 243.736" stroke="#0E1947" stroke-width="1.80723"/>
</g>
<rect x="91.1802" y="98.3738" width="24.8014" height="5.78257" transform="rotate(45 91.1802 98.3738)" fill="#0E1947"/>
<path d="M99.309 82.4017C99.309 97.9706 86.6879 110.592 71.119 110.592C55.5501 110.592 42.929 97.9706 42.929 82.4017C42.929 66.8328 55.5501 54.2117 71.119 54.2117C86.6879 54.2117 99.309 66.8328 99.309 82.4017ZM48.6763 82.4017C48.6763 94.7964 58.7243 104.844 71.119 104.844C83.5137 104.844 93.5617 94.7964 93.5617 82.4017C93.5617 70.0069 83.5137 59.959 71.119 59.959C58.7243 59.959 48.6763 70.0069 48.6763 82.4017Z" fill="#0E1947"/>
<defs>
<clipPath id="clip0_24_243">
<rect width="119.988" height="27.4672" fill="white" transform="matrix(4.37114e-08 1 1 -4.37114e-08 0.282532 0)"/>
</clipPath>
</defs>
</svg>
