<svg width="178" height="30" viewBox="0 0 178 30" fill="none" xmlns="http://www.w3.org/2000/svg">
<path d="M42 27.768V3H48.264V22.728H57.912V27.768H42Z" fill="white"/>
<path d="M71.1648 28.056C69.3168 28.056 67.7808 27.948 66.5568 27.732C65.3328 27.492 64.3608 27.12 63.6408 26.616C62.9208 26.112 62.3808 25.428 62.0208 24.564C61.6608 23.676 61.4208 22.584 61.3008 21.288C61.2048 19.968 61.1568 18.408 61.1568 16.608V3H67.4208V17.94C67.4208 19.092 67.4448 20.028 67.4928 20.748C67.5648 21.444 67.7088 21.972 67.9248 22.332C68.1648 22.692 68.5368 22.932 69.0408 23.052C69.5688 23.148 70.2768 23.196 71.1648 23.196C72.0528 23.196 72.7488 23.148 73.2528 23.052C73.7568 22.932 74.1168 22.692 74.3328 22.332C74.5728 21.972 74.7168 21.444 74.7648 20.748C74.8368 20.028 74.8728 19.092 74.8728 17.94V3H81.1368V16.608C81.1368 18.408 81.0768 19.968 80.9568 21.288C80.8608 22.584 80.6328 23.676 80.2728 24.564C79.9368 25.428 79.4088 26.112 78.6888 26.616C77.9688 27.12 76.9968 27.492 75.7728 27.732C74.5488 27.948 73.0128 28.056 71.1648 28.056Z" fill="white"/>
<path d="M86.1562 27.768V3H94.7603L99.6923 17.688H99.9443L104.876 3H113.444V27.768H107.432V11.676H107.18L101.816 27.768H97.6043L92.2762 11.676H91.9883V27.768H86.1562Z" fill="white"/>
<path d="M118.57 27.768V3H124.834V27.768H118.57Z" fill="white"/>
<path d="M129.996 27.768V3H136.44L144.504 16.284H144.684V3H150.696V27.768H144.828L136.188 13.26H136.008V27.768H129.996Z" fill="white"/>
<path d="M153.533 27.768L161.381 3H169.913L177.797 27.768H171.461L169.985 22.908H161.165L159.725 27.768H153.533ZM162.497 18.192H168.617L165.665 8.4H165.413L162.497 18.192Z" fill="white"/>
<path fill-rule="evenodd" clip-rule="evenodd" d="M30 15C30 16.241 29.8493 17.4467 29.5652 18.6H27.6V17.7H25.5V18.3H23.7V18.6H19.8V18.3H18V16.8H17.4V18.3H15.3V17.7H10.5V18.6H8.7V17.7H7.8V18.3H7.5V16.2H6.6V18.6H5.4V16.8H4.8V16.5H2.7V18.6H0.434788C0.150696 17.4467 0 16.241 0 15C0 14.8998 0.000983113 14.7998 0.00294022 14.7H29.9971C29.999 14.7998 30 14.8998 30 15ZM2.18497 22.8C1.61325 21.8627 1.14147 20.8578 0.784434 19.8H29.2156C28.8585 20.8578 28.3868 21.8627 27.815 22.8H24.95L19.2 22.05L18.3 22.35L16.8 21.9L16.35 22.5H14.4L13.35 22.65L11.4 22.05L5.15 22.8H2.18497ZM2.9989 24C3.56907 24.7591 4.20957 25.4623 4.91074 26.1H8.31795L10.05 25.5L11.7821 26.1H18V25.575H17.3211L18.75 24.9L20.1789 25.575H19.5V25.8H21V26.1H25.0893C25.7904 25.4623 26.4309 24.7591 27.0011 24H2.9989ZM8.45381 28.5C7.73982 28.1531 7.05747 27.7513 6.41228 27.3H23.5877C22.9425 27.7513 22.2602 28.1531 21.5462 28.5H8.45381ZM12.0003 29.7C12.9695 29.8967 13.9727 30 15 30C16.0273 30 17.0305 29.8967 17.9997 29.7H12.0003ZM0.0740629 13.5C0.826649 5.92002 7.22198 0 15 0C22.778 0 29.1734 5.92002 29.9259 13.5H28.5L24.6 10.2L23.25 11.1L22.8 10.8L22.2 11.4L19.8 9.9L17.55 10.8L15.3 9.3L14.7 9.6L14.1 9L1.5 13.5H0.0740629Z" fill="white"/>
</svg>
